# xmcd
#
# Track frame offsets:
#   150
#   28058
#   52660
#   79203
#   109233
#   128620
#   146460
#
# Disc length: 2186 seconds
#
# Revision: 1
# Processed by: cddbd v1.5.1PL0 Copyright (c) Steve Scherf et al.
# Submitted via: Media_Universe 3.0
#
DISCID=53088807
DTITLE=George Howard - Asphalt Gardens
DYEAR=1982
DGENRE=Jazz
TTITLE0=Asphalt Gardens
TTITLE1=Brand New
TTITLE2=Rocket Love
TTITLE3=Bright Eyes
TTITLE4=The Preacher
TTITLE5=Is This Commercial Enough For You
TTITLE6=As We Grow
EXTD=YEAR: 1982
EXTT0=
EXTT1=
EXTT2=
EXTT3=
EXTT4=
EXTT5=
EXTT6=
PLAYORDER=
